<svg width="27" height="20" viewBox="0 0 27 20" fill="none" xmlns="http://www.w3.org/2000/svg">
<path d="M24.6882 7.90834H19.486L14.729 2.44167C14.5227 2.20834 14.1751 2.09167 13.8276 2.09167C13.48 2.09167 13.1325 2.20834 12.9261 2.45001L8.16918 7.90834H2.96692C2.36959 7.90834 1.88086 8.28334 1.88086 8.74167C1.88086 8.81667 1.89172 8.89167 1.9243 8.96667L4.68291 16.6917C4.9327 17.3917 5.76897 17.9083 6.76815 17.9083H20.887C21.8862 17.9083 22.7225 17.3917 22.9831 16.6917L25.7417 8.96667L25.7743 8.74167C25.7743 8.28334 25.2856 7.90834 24.6882 7.90834ZM13.8276 4.40834L16.8686 7.90834H10.7866L13.8276 4.40834ZM20.887 16.2417L6.77901 16.25L4.38967 9.57501H23.2763L20.887 16.2417ZM13.8276 11.2417C12.6329 11.2417 11.6554 11.9917 11.6554 12.9083C11.6554 13.825 12.6329 14.575 13.8276 14.575C15.0222 14.575 15.9997 13.825 15.9997 12.9083C15.9997 11.9917 15.0222 11.2417 13.8276 11.2417Z" fill="#8B96A5"/>
</svg>
